<?xml version="1.0" standalone="no"?>
<!DOCTYPE svg PUBLIC "-//W3C//DTD SVG 20010904//EN" "http://www.w3.org/TR/2001/REC-SVG-20010904/DTD/svg10.dtd">
<!-- Created using Krita: https://krita.org -->
<svg xmlns="http://www.w3.org/2000/svg" 
    xmlns:xlink="http://www.w3.org/1999/xlink"
    xmlns:krita="http://krita.org/namespaces/svg/krita"
    xmlns:sodipodi="http://sodipodi.sourceforge.net/DTD/sodipodi-0.dtd"
    width="6.75pt"
    height="6.75pt"
    viewBox="0 0 6.75 6.75">
<defs/>
<path id="shape0" transform="matrix(0.225 0 0 0.225 2.19375 2.052)" fill="#ffffff" stroke-opacity="0" stroke="#000000" stroke-width="0" stroke-linecap="square" stroke-linejoin="bevel" d="M0 1.86C0 1.36 0.18 0.93 0.53 0.58C0.89 0.22 1.31 0.05 1.81 0.05C2.3 0.05 2.73 0.23 3.08 0.58C3.43 0.94 3.61 1.36 3.61 1.86C3.61 2.36 3.43 2.79 3.08 3.14C2.73 3.5 2.3 3.67 1.81 3.67C1.31 3.67 0.88 3.49 0.53 3.14C0.18 2.79 0 2.36 0 1.86ZM0.88 1.86C0.88 2.12 0.97 2.34 1.15 2.53C1.34 2.72 1.56 2.81 1.82 2.81C2.08 2.81 2.3 2.72 2.49 2.53C2.68 2.34 2.77 2.12 2.77 1.86C2.77 1.6 2.68 1.38 2.49 1.19C2.3 1 2.08 0.91 1.82 0.91C1.56 0.91 1.34 1 1.15 1.19C0.97 1.37 0.88 1.6 0.88 1.86ZM4.77 6.28C4.77 7.05 4.98 7.73 5.41 8.33C5.63 8.64 5.94 8.89 6.34 9.08C6.73 9.26 7.18 9.36 7.68 9.36C9.14 9.36 10.06 8.8 10.43 7.69C10.47 7.55 10.45 7.41 10.37 7.28C10.29 7.15 10.18 7.08 10.04 7.05C9.9 7.01 9.76 7.03 9.64 7.12C9.52 7.2 9.44 7.31 9.41 7.46C9.41 7.47 9.41 7.48 9.4 7.51L9.38 7.58C9.27 7.77 9.12 7.92 8.93 8.03C8.62 8.22 8.21 8.31 7.7 8.31C7.39 8.31 7.11 8.26 6.87 8.15C6.47 7.98 6.19 7.68 6.02 7.26C5.91 6.99 5.85 6.66 5.85 6.29L5.85 3.07C5.85 2.92 5.86 2.77 5.88 2.62C5.92 2.24 6.07 1.89 6.33 1.58C6.62 1.23 7.08 1.06 7.71 1.06C8.23 1.06 8.64 1.15 8.94 1.33C9.14 1.45 9.29 1.6 9.39 1.78C9.4 1.8 9.4 1.83 9.41 1.86C9.42 1.89 9.42 1.91 9.42 1.92C9.46 2.06 9.54 2.16 9.65 2.22C9.77 2.29 9.9 2.3 10.05 2.27C10.19 2.24 10.3 2.16 10.38 2.04C10.46 1.92 10.48 1.79 10.44 1.64L10.44 1.63L10.36 1.4C10.31 1.29 10.22 1.14 10.08 0.97C9.95 0.79 9.79 0.65 9.63 0.53C9.42 0.38 9.15 0.26 8.81 0.15C8.47 0.05 8.1 0 7.7 0C7.19 0 6.75 0.09 6.35 0.27C5.96 0.45 5.65 0.69 5.44 1C5.01 1.59 4.79 2.28 4.79 3.07L4.79 6.28Z" sodipodi:nodetypes="ccccccccccccccccccccccccccccccccccccccccccccccccccccccccc"/>
</svg>
