<?xml version="1.0" standalone="no"?>
<!DOCTYPE svg PUBLIC "-//W3C//DTD SVG 20010904//EN" "http://www.w3.org/TR/2001/REC-SVG-20010904/DTD/svg10.dtd">
<!-- Created using Krita: https://krita.org -->
<svg xmlns="http://www.w3.org/2000/svg" 
    xmlns:xlink="http://www.w3.org/1999/xlink"
    xmlns:krita="http://krita.org/namespaces/svg/krita"
    xmlns:sodipodi="http://sodipodi.sourceforge.net/DTD/sodipodi-0.dtd"
    width="6.75pt"
    height="6.75pt"
    viewBox="0 0 6.75 6.75">
<defs/>
<path id="shape0" transform="matrix(0.225 0 0 0.225 1.80484058138574 1.33875)" fill="#ffffff" stroke-opacity="0" stroke="#000000" stroke-width="0" stroke-linecap="square" stroke-linejoin="bevel" d="M0.728486 9.59C-0.391514 7.19 -0.221514 4.93 1.24849 2.8C2.27849 1.32 3.84849 0.41 5.97849 0.08C6.13849 0.04 6.31849 0.01 6.51849 0L7.14849 0C10.0585 0.09 12.1985 1.38 13.5485 3.88C14.1885 5.06 14.3485 6.36 14.0285 7.79C13.7685 8.92 13.3485 9.98 12.7485 10.96C11.4585 12.97 10.1185 14.6 8.74849 15.84C8.67849 15.91 8.57849 16 8.44849 16.1C7.98849 16.45 7.55849 16.63 7.16849 16.64C6.77849 16.65 6.33849 16.5 5.85849 16.19C5.56849 16.02 5.32849 15.82 5.11849 15.6C3.15849 13.6 1.68849 11.6 0.728486 9.59ZM0.838486 7.38C0.858486 7.49 0.888486 7.63 0.928486 7.82C0.968486 8.01 0.998486 8.14 1.01849 8.22C1.29849 9.48 1.87849 10.45 2.74849 11.15C3.62849 11.85 4.70849 12.26 6.00849 12.38C6.29849 12.41 6.46849 12.4 6.51849 12.35C6.56849 12.3 6.59849 12.12 6.60849 11.83C6.59849 11.75 6.57849 11.62 6.55849 11.44C6.53849 11.26 6.51849 11.13 6.49849 11.05C6.24849 9.71 5.61849 8.73 4.59849 8.12C4.41849 8.01 4.20849 7.9 3.97849 7.78C3.74849 7.66 3.53849 7.58 3.36849 7.51C3.19849 7.44 2.96849 7.35 2.67849 7.24C2.38849 7.13 2.17849 7.05 2.04849 6.99C1.88849 6.93 1.62849 6.89 1.24849 6.88C0.928486 6.88 0.788486 7.05 0.838486 7.38ZM7.63849 11.78C7.61849 12.09 7.63849 12.27 7.69849 12.34C7.76849 12.41 7.94849 12.42 8.24849 12.38C8.62849 12.34 9.02849 12.26 9.44849 12.16C10.5185 11.89 11.3885 11.32 12.0685 10.45C12.4085 10.04 12.6685 9.59 12.8385 9.11C13.0085 8.63 13.1785 8.06 13.3085 7.39C13.3585 7.16 13.3485 7.01 13.2785 6.93C13.2085 6.85 13.0585 6.82 12.8385 6.85C12.2485 6.95 11.7185 7.08 11.2485 7.25C10.0985 7.68 9.22849 8.26 8.62849 8.99C8.02849 9.73 7.69849 10.65 7.63849 11.78Z" sodipodi:nodetypes="cccccccccccccccccccccccccccccccccccccccccc"/>
</svg>
