<?xml version="1.0" standalone="no"?>
<!DOCTYPE svg PUBLIC "-//W3C//DTD SVG 20010904//EN" "http://www.w3.org/TR/2001/REC-SVG-20010904/DTD/svg10.dtd">
<!-- Created using Krita: https://krita.org -->
<svg xmlns="http://www.w3.org/2000/svg" 
    xmlns:xlink="http://www.w3.org/1999/xlink"
    xmlns:krita="http://krita.org/namespaces/svg/krita"
    xmlns:sodipodi="http://sodipodi.sourceforge.net/DTD/sodipodi-0.dtd"
    width="6.75pt"
    height="6.75pt"
    viewBox="0 0 6.75 6.75">
<defs/>
<path id="shape0" transform="matrix(0.225 0 0 0.225 0.8415 0.71775)" fill="#ffffff" stroke-opacity="0" stroke="#000000" stroke-width="0" stroke-linecap="square" stroke-linejoin="bevel" d="M0 11.25C0 9.73 0.3 8.27 0.89 6.88C1.48 5.49 2.29 4.3 3.29 3.29C4.29 2.28 5.49 1.48 6.88 0.89C8.27 0.3 9.72 0 11.25 0C12.78 0 14.23 0.3 15.62 0.89C17.01 1.48 18.21 2.29 19.22 3.29C20.23 4.29 21.03 5.49 21.62 6.88C22.21 8.27 22.51 9.72 22.51 11.25C22.51 12.78 22.21 14.23 21.62 15.62C21.03 17.01 20.22 18.21 19.22 19.22C18.22 20.23 17.02 21.03 15.62 21.62C14.22 22.21 12.77 22.51 11.25 22.51C9.73 22.51 8.27 22.21 6.88 21.62C5.49 21.03 4.3 20.22 3.29 19.22C2.28 18.22 1.48 17.02 0.89 15.62C0.3 14.22 0 12.78 0 11.25ZM11.06 21.32L11.25 21.32C12.62 21.32 13.92 21.05 15.16 20.52C16.4 19.99 17.47 19.27 18.37 18.37C19.27 17.47 19.98 16.4 20.52 15.16C21.06 13.92 21.32 12.62 21.32 11.25C21.32 9.89 21.05 8.59 20.52 7.35C19.99 6.11 19.27 5.04 18.37 4.14C17.47 3.24 16.4 2.53 15.16 1.99C13.92 1.45 12.62 1.19 11.25 1.19L11.06 1.19Z" sodipodi:nodetypes="ccccccccccccccccccccccccccccc"/>
</svg>
