<?xml version="1.0" standalone="no"?>
<!DOCTYPE svg PUBLIC "-//W3C//DTD SVG 20010904//EN" "http://www.w3.org/TR/2001/REC-SVG-20010904/DTD/svg10.dtd">
<!-- Created using Krita: https://krita.org -->
<svg xmlns="http://www.w3.org/2000/svg" 
    xmlns:xlink="http://www.w3.org/1999/xlink"
    xmlns:krita="http://krita.org/namespaces/svg/krita"
    xmlns:sodipodi="http://sodipodi.sourceforge.net/DTD/sodipodi-0.dtd"
    width="6.75pt"
    height="6.75pt"
    viewBox="0 0 6.75 6.75">
<defs/>
<path id="shape0" transform="matrix(0.225 0 0 0.225 0.6975 2.01375)" fill="#ffffff" stroke-opacity="0" stroke="#000000" stroke-width="0" stroke-linecap="square" stroke-linejoin="bevel" d="M0 8.02C0 8.26 0.09 8.47 0.28 8.64C0.44 8.83 0.65 8.92 0.91 8.92L15.6 8.92C15.89 8.92 16.13 9.02 16.33 9.22C16.53 9.42 16.63 9.67 16.63 9.96C16.63 10.25 16.53 10.49 16.33 10.68C16.13 10.87 15.89 10.97 15.59 10.97C15.3 10.97 15.05 10.87 14.86 10.68C14.7 10.5 14.5 10.42 14.26 10.42C14.01 10.42 13.8 10.51 13.62 10.68C13.44 10.85 13.35 11.06 13.35 11.29C13.35 11.54 13.44 11.75 13.63 11.92C14.19 12.47 14.85 12.75 15.59 12.75C16.37 12.75 17.04 12.48 17.6 11.94C18.16 11.4 18.43 10.75 18.43 9.97C18.43 9.19 18.15 8.53 17.59 7.97C17.03 7.41 16.36 7.13 15.59 7.13L0.91 7.13C0.66 7.13 0.45 7.22 0.27 7.39C0.09 7.56 0 7.77 0 8.02ZM0 4.74C0 4.97 0.09 5.17 0.28 5.35C0.45 5.53 0.66 5.61 0.91 5.61L20.95 5.61C21.73 5.61 22.4 5.34 22.96 4.79C23.52 4.25 23.8 3.59 23.8 2.82C23.8 2.05 23.52 1.38 22.96 0.83C22.4 0.28 21.73 0 20.95 0C20.18 0 19.53 0.27 19 0.8C18.82 0.96 18.73 1.18 18.73 1.47C18.73 1.73 18.82 1.94 18.99 2.1C19.16 2.26 19.37 2.34 19.62 2.34C19.86 2.34 20.07 2.26 20.25 2.1C20.44 1.89 20.67 1.79 20.95 1.79C21.24 1.79 21.48 1.89 21.68 2.09C21.88 2.29 21.98 2.53 21.98 2.82C21.98 3.11 21.88 3.35 21.68 3.54C21.48 3.73 21.24 3.83 20.95 3.83L0.91 3.83C0.66 3.83 0.45 3.92 0.27 4.09C0.09 4.28 0 4.49 0 4.74Z" sodipodi:nodetypes="cccccccccccccccccccccccccccccccccccccccccc"/>
</svg>
