<?xml version="1.0" standalone="no"?>
<!DOCTYPE svg PUBLIC "-//W3C//DTD SVG 20010904//EN" "http://www.w3.org/TR/2001/REC-SVG-20010904/DTD/svg10.dtd">
<!-- Created using Krita: https://krita.org -->
<svg xmlns="http://www.w3.org/2000/svg" 
    xmlns:xlink="http://www.w3.org/1999/xlink"
    xmlns:krita="http://krita.org/namespaces/svg/krita"
    xmlns:sodipodi="http://sodipodi.sourceforge.net/DTD/sodipodi-0.dtd"
    width="6.75pt"
    height="6.75pt"
    viewBox="0 0 6.75 6.75">
<defs/>
<path id="shape0" transform="matrix(0.225 0 0 0.225 0.8415 0.7245)" fill="#ffffff" stroke-opacity="0" stroke="#000000" stroke-width="0" stroke-linecap="square" stroke-linejoin="bevel" d="M0 11.28C0 9.24 0.51 7.35 1.52 5.62C2.53 3.89 3.9 2.52 5.63 1.51C7.36 0.5 9.24 0 11.27 0C12.79 0 14.25 0.3 15.64 0.89C17.03 1.48 18.22 2.29 19.23 3.29C20.24 4.29 21.04 5.49 21.63 6.89C22.22 8.29 22.52 9.74 22.52 11.28C22.52 12.8 22.22 14.26 21.63 15.65C21.04 17.04 20.23 18.24 19.23 19.24C18.23 20.24 17.03 21.04 15.64 21.63C14.25 22.22 12.8 22.52 11.27 22.52C9.74 22.52 8.27 22.22 6.88 21.63C5.49 21.04 4.29 20.23 3.28 19.23C2.27 18.23 1.48 17.03 0.88 15.65C0.28 14.27 0 12.81 0 11.28ZM2.48 11.28C2.48 13.65 3.34 15.71 5.07 17.46C6.8 19.19 8.86 20.05 11.27 20.05C12.85 20.05 14.32 19.66 15.66 18.87C17 18.08 18.08 17.02 18.87 15.67C19.66 14.32 20.06 12.86 20.06 11.28C20.06 9.7 19.66 8.23 18.87 6.88C18.08 5.53 17.01 4.46 15.66 3.67C14.31 2.88 12.85 2.49 11.27 2.49C9.69 2.49 8.22 2.88 6.88 3.67C5.54 4.46 4.46 5.53 3.66 6.88C2.86 8.23 2.48 9.7 2.48 11.28ZM7.37 17.13L11.12 4.02C11.13 3.92 11.18 3.87 11.27 3.87C11.36 3.87 11.41 3.92 11.42 4.02L15.16 17.13C15.2 17.24 15.19 17.32 15.14 17.38C15.09 17.44 15.01 17.44 14.9 17.38L11.43 16.08C11.33 16.04 11.23 16.04 11.14 16.08L7.64 17.38C7.54 17.44 7.47 17.44 7.43 17.38C7.39 17.32 7.35 17.23 7.37 17.13Z" sodipodi:nodetypes="cccccccccccccccccccccccccccccccccccccccc"/>
</svg>
